<svg width="141" height="58" viewBox="0 0 141 58" fill="none" xmlns="http://www.w3.org/2000/svg">
<rect width="140.12" height="57.9445" rx="9.48182" fill="#CD2D26"/>
<path d="M52.0619 51.9859C51.54 52.525 50.7225 52.8034 49.4876 52.8034H45.9043V40.4187H49.4876C50.7225 40.4187 51.54 40.6969 52.0794 41.2186C52.6701 41.7926 52.8969 42.6971 52.8969 43.88C52.8969 44.6799 52.8273 45.3585 52.3055 45.8803C52.1389 46.0507 51.9448 46.1918 51.7314 46.2977C51.9576 46.4197 52.1315 46.5762 52.288 46.7328C52.8621 47.3763 52.8969 48.2981 52.8969 48.9939C52.8969 50.3335 52.6881 51.3423 52.0619 51.9859ZM49.1223 42.6453H48.3743V45.2892H49.1223C50.0964 45.2892 50.4268 44.889 50.4268 43.9673C50.4268 43.0277 50.1138 42.6453 49.1223 42.6453ZM49.1571 47.3765H48.3743V50.5772H49.1571C50.1485 50.5772 50.4268 50.1074 50.4268 48.9767C50.4268 47.846 50.1138 47.3764 49.1571 47.3764V47.3765Z" fill="white"/>
<path d="M60.03 52.8035L59.63 50.8728H56.7773L56.3772 52.8035H53.8027L56.9859 40.4187H59.4212L62.6044 52.8035H60.03ZM58.2036 44.0536L57.2469 48.6458H59.1603L58.2036 44.0536Z" fill="white"/>
<path d="M68.7608 52.8035L66.1342 46.7501V52.8035H63.6641V40.4187H65.821L68.3955 46.4719V40.4187H70.8654V52.8035H68.7608Z" fill="white"/>
<path d="M78.989 51.6033C78.4324 52.2468 77.6669 52.8035 76.2754 52.8035H72.7793V40.4187H76.2757C77.6672 40.4187 78.4326 40.9752 78.9892 41.6187C79.9806 42.7669 79.9111 44.9934 79.9111 46.611C79.9111 48.2287 79.9804 50.4552 78.989 51.6033ZM77.1451 43.1842C76.9886 42.8712 76.6754 42.6452 76.2231 42.6452H75.2492V50.577H76.2231C76.6754 50.577 76.9886 50.351 77.1451 50.0378C77.4405 49.4638 77.4405 47.9678 77.4405 46.5936C77.4405 45.2193 77.4408 43.7584 77.1451 43.1842Z" fill="white"/>
<path d="M87.4419 51.7078C86.8679 52.386 86.1025 52.9427 84.7111 52.9427C83.3196 52.9427 82.5888 52.386 82.0148 51.7078C81.0233 50.5248 81.0928 48.2811 81.0928 46.6111C81.0928 44.9411 81.0233 42.6976 82.0148 41.5145C82.5888 40.836 83.3193 40.2794 84.7111 40.2794C86.1028 40.2794 86.8679 40.836 87.4419 41.5145C88.4334 42.6973 88.3639 44.9412 88.3639 46.6111C88.3639 48.2809 88.4334 50.5248 87.4419 51.7078ZM85.5633 42.993C85.4241 42.7147 85.1632 42.5059 84.7111 42.5059C84.2589 42.5059 84.0326 42.7151 83.8934 42.993C83.5981 43.567 83.5629 45.1151 83.5629 46.6111C83.5629 48.107 83.5977 49.6551 83.8934 50.2292C84.0326 50.5077 84.2587 50.7164 84.7111 50.7164C85.1634 50.7164 85.4241 50.5072 85.5633 50.2292C85.8586 49.6552 85.8938 48.1072 85.8938 46.6111C85.8938 45.115 85.859 43.567 85.5633 42.993Z" fill="white"/>
<path d="M89.9121 52.8035V40.4187H92.3823V50.577H95.6175V52.8035H89.9121Z" fill="white"/>
<path d="M34.7456 33.512C33.2295 34.9437 31.419 35.6595 28.9348 35.6595C25.5661 35.6595 23.7977 34.3122 22.4081 32.67C20.0084 29.8066 20.1764 24.4168 20.1764 20.3743C20.1764 16.3317 20.0084 10.8578 22.4081 7.99485C23.7977 6.3528 25.5661 5.00513 28.9348 5.00513C31.419 5.00513 33.2298 5.72099 34.7456 7.15272C36.3036 8.62642 37.2721 10.9845 37.3983 13.8474H31.419C31.3771 13.0057 31.2934 12.1635 30.9558 11.532C30.6191 10.8161 30.0294 10.3949 28.9348 10.3949C27.8403 10.3949 27.2927 10.9004 26.9556 11.5739C26.2399 12.9634 26.1557 16.7111 26.1557 20.3324C26.1557 23.9537 26.2399 27.701 26.9556 29.0909C27.2927 29.7643 27.8398 30.2696 28.9348 30.2696C30.0299 30.2696 30.6612 29.8066 30.9981 29.0909C31.3348 28.459 31.419 27.617 31.4611 26.775H37.4404C37.3142 29.638 36.3036 32.0384 34.7456 33.512Z" fill="white"/>
<path d="M72.0117 33.4279C70.6643 34.7332 68.3904 35.6594 65.4851 35.6594C62.5376 35.6594 60.348 34.8174 59.0004 33.4697C57.5268 31.9961 57.0215 29.8906 57.0215 26.8167H63.0007C63.0007 28.0381 63.085 28.9224 63.6323 29.5539C63.9692 29.9328 64.5587 30.2695 65.4851 30.2695C66.4115 30.2695 67.0009 30.0169 67.3803 29.5117C67.8014 29.0064 67.9698 28.2062 67.9698 26.9853C67.9698 24.1219 67.5066 23.6167 65.3592 22.7325L61.5688 21.1744C58.5373 19.9112 57.2739 18.3113 57.2739 13.6372C57.2739 10.8581 58.1581 8.5423 59.969 6.9843C61.4007 5.76313 63.2112 5.08911 65.4851 5.08911C68.1378 5.08911 70.0754 5.76289 71.3799 6.9843C73.0221 8.50008 73.6958 10.9003 73.6958 13.9321H67.7168C67.7168 12.8793 67.7168 11.9108 67.2113 11.237C66.8746 10.7739 66.3693 10.4791 65.4851 10.4791C64.6427 10.4791 64.0956 10.816 63.7585 11.279C63.3796 11.7843 63.2533 12.4156 63.2533 13.4266C63.2533 15.3218 63.5902 15.8688 65.3166 16.5845L69.0642 18.1003C72.8537 19.6583 73.9487 21.3427 73.9487 26.7746C73.9487 29.8067 73.5698 31.9122 72.0117 33.4279Z" fill="white"/>
<path d="M75.5898 35.3231V5.34216H81.5692V35.3231H75.5898Z" fill="white"/>
<path d="M96.4331 35.3231L90.075 20.6692V35.3231H84.0957V5.34216H89.3171L95.5489 19.9954V5.34216H101.528V35.3231H96.4331Z" fill="white"/>
<path d="M118.541 32.67C117.152 34.3122 115.299 35.6595 111.93 35.6595C108.562 35.6595 106.793 34.3122 105.404 32.67C103.005 29.8066 103.172 24.3746 103.172 20.3324C103.172 16.2902 103.004 10.8578 105.404 7.99485C106.793 6.3528 108.562 5.00513 111.93 5.00513C115.299 5.00513 117.152 6.3528 118.541 7.99485C120.941 10.8582 120.773 16.29 120.773 20.3324C120.773 24.3748 120.941 29.8066 118.541 32.67ZM113.994 11.5739C113.657 10.9004 113.026 10.3949 111.931 10.3949C110.836 10.3949 110.289 10.9004 109.952 11.5739C109.236 12.9634 109.152 16.7111 109.152 20.3324C109.152 23.9537 109.236 27.701 109.952 29.0909C110.289 29.7643 110.836 30.2696 111.931 30.2696C113.026 30.2696 113.657 29.7643 113.994 29.0909C114.71 27.701 114.794 23.9538 114.794 20.3324C114.794 16.711 114.71 12.9634 113.994 11.5739Z" fill="white"/>
<path d="M49.8215 5.34216H43.9267L36.2207 35.3231H42.4527L43.4212 30.649H50.3267L51.2952 35.3231H57.5272L49.8215 5.34216ZM43.6713 27.6554L42.6056 28.0633V18.1699C42.5441 16.4859 43.4826 15.5168 44.7018 15.3589C43.9518 16.078 43.6713 16.6387 43.6713 17.4199V27.6554ZM45.4254 27.8308L44.3597 28.2474V18.0647C44.294 16.3324 45.2325 15.3374 46.456 15.1748C45.706 15.9114 45.4254 16.4903 45.4254 17.2928V27.8308ZM47.0787 16.9551V27.8176L46.0174 28.2469V17.7533C45.9514 15.9641 46.8944 14.9379 48.1136 14.7714C47.2805 15.3374 47.0787 16.1263 47.0787 16.9551ZM51.1088 20.3844C51.1088 21.1344 50.2931 22.3184 48.3855 22.2877C49.9467 21.6036 50.0738 20.7266 50.1046 19.5426V15.6965C50.1046 14.3327 49.1047 14.5783 48.8854 14.5476C50.0081 14.052 51.0737 14.9072 51.1088 15.8767V20.3844Z" fill="white"/>
</svg>
